<svg xmlns="http://www.w3.org/2000/svg" width="64" height="64" viewBox="0 0 64 64"><defs><mask id="b" width="2.04" height="2.04" x="-1.02" y="-1.02"><path fill="#fff" d="M6 3h52v52H6z"/><path d="M32 4c13.807 0 25 11.193 25 25S45.807 54 32 54 7 42.807 7 29 18.193 4 32 4z"/></mask><filter id="a" width="90" height="93" x="-13" y="-16" filterUnits="userSpaceOnUse"><feOffset dy="3" in="SourceGraphic" result="FeOffset1080Out"/><feGaussianBlur in="FeOffset1080Out" result="FeGaussianBlur1081Out" stdDeviation="3.6 3.6"/></filter></defs><g filter="url(#a)"><path fill="none" stroke="#0f2161" stroke-opacity=".05" stroke-width="2" d="M32 4c13.807 0 25 11.193 25 25S45.807 54 32 54 7 42.807 7 29 18.193 4 32 4z" mask="url(&quot;#b&quot;)"/><path fill="#0f2161" fill-opacity=".05" d="M32 4c13.807 0 25 11.193 25 25S45.807 54 32 54 7 42.807 7 29 18.193 4 32 4z"/></g><path fill="#fff" d="M32 4c13.807 0 25 11.193 25 25S45.807 54 32 54 7 42.807 7 29 18.193 4 32 4z"/><text dominant-baseline="text-before-edge" style="text-transform:uppercase;line-height:16px" fill="#2a2a2a" font-family="'themify','themify'" font-size="14" font-style="none" font-weight="400" transform="translate(25 23)"><tspan style="font-kerning:normal" letter-spacing=".35"></tspan></text></svg>